HIERARCHY
ROOT SpineBase
{
  OFFSET 0.000000 0.000000 0.000000
  CHANNELS 6 Xposition Yposition Zposition Zrotation Xrotation Yrotation
  JOINT SpineMid
  {
    OFFSET 0.000000 30.972615 0.000000
    CHANNELS 3 Zrotation Xrotation Yrotation
    JOINT SpineShoulder
    {
      OFFSET 0.011553 22.948926 -0.758173
      CHANNELS 3 Zrotation Xrotation Yrotation
      JOINT Neck
      {
        OFFSET -0.020313 7.578902 -0.581922
        CHANNELS 3 Zrotation Xrotation Yrotation
        JOINT Head
        {
          OFFSET 4.465943 14.178290 -0.375626
          CHANNELS 3 Zrotation Xrotation Yrotation
          End Site
          {
            OFFSET 0 0 0
          }
        }
      }
      JOINT ShoulderLeft
      {
        OFFSET -12.565929 -0.993001 -5.763579
        CHANNELS 3 Zrotation Xrotation Yrotation
        JOINT ElbowLeft
        {
          OFFSET -13.383811 -14.309408 -3.429437
          CHANNELS 3 Zrotation Xrotation Yrotation
          JOINT WristLeft
          {
            OFFSET -0.470827 -19.306950 -2.957189
            CHANNELS 3 Zrotation Xrotation Yrotation
            JOINT HandLeft
            {
              OFFSET 6.703941 -4.215168 -0.433234
              CHANNELS 3 Zrotation Xrotation Yrotation
              JOINT HandTipLeft
              {
                OFFSET 0.098999 -4.262705 5.223992
                CHANNELS 3 Zrotation Xrotation Yrotation
                End Site
                {
                  OFFSET 0 0 0
                }
              }
              JOINT ThumbLeft
              {
                OFFSET 0.070191 2.067714 -5.006653
                CHANNELS 3 Zrotation Xrotation Yrotation
                End Site
                {
                  OFFSET 0 0 0
                }
              }
            }
          }
        }
      }
      JOINT ShoulderRight
      {
        OFFSET 17.499330 -4.921963 4.210443
        CHANNELS 3 Zrotation Xrotation Yrotation
        JOINT ElbowRight
        {
          OFFSET 2.771750 -23.968889 2.330237
          CHANNELS 3 Zrotation Xrotation Yrotation
          JOINT WristRight
          {
            OFFSET -6.029802 -19.059502 -14.986143
            CHANNELS 3 Zrotation Xrotation Yrotation
            JOINT HandRight
            {
              OFFSET -2.552982 -3.164328 -0.814960
              CHANNELS 3 Zrotation Xrotation Yrotation
              JOINT HandTipRight
              {
                OFFSET -2.252386 -3.264807 -2.292936
                CHANNELS 3 Zrotation Xrotation Yrotation
                End Site
                {
                  OFFSET 0 0 0
                }
              }
              JOINT ThumbRight
              {
                OFFSET -3.337623 0.724390 -2.455280
                CHANNELS 3 Zrotation Xrotation Yrotation
                End Site
                {
                  OFFSET 0 0 0
                }
              }
            }
          }
        }
      }
    }
  }
  JOINT HipLeft
  {
    OFFSET -7.787625 1.670075 -6.059547
    CHANNELS 3 Zrotation Xrotation Yrotation
    JOINT KneeLeft
    {
      OFFSET -8.388855 -33.391537 4.556536
      CHANNELS 3 Zrotation Xrotation Yrotation
      JOINT AnkleLeft
      {
        OFFSET -3.330584 -32.846061 7.172649
        CHANNELS 3 Zrotation Xrotation Yrotation
        JOINT FootLeft
        {
          OFFSET 1.810025 -3.635351 -10.151745
          CHANNELS 3 Zrotation Xrotation Yrotation
          End Site
          {
            OFFSET 0 0 0
          }
        }
      }
    }
  }
  JOINT HipRight
  {
    OFFSET 6.813233 -0.148073 -0.998040
    CHANNELS 3 Zrotation Xrotation Yrotation
    JOINT KneeRight
    {
      OFFSET -5.882636 -34.644513 7.372237
      CHANNELS 3 Zrotation Xrotation Yrotation
      JOINT AnkleRight
      {
        OFFSET -7.086149 -33.083425 7.787393
        CHANNELS 3 Zrotation Xrotation Yrotation
        JOINT FootRight
        {
          OFFSET -1.236968 -5.755092 -5.524627
          CHANNELS 3 Zrotation Xrotation Yrotation
          End Site
          {
            OFFSET 0 0 0
          }
        }
      }
    }
  }
}
MOTION
Frames: 10
Frame Time: 0.033333
46.084966 74.865124 335.865040 -0.000000 0.000000 -19.119291 0.000000 0.000000 19.119291 -0.000000 0.000000 0.000000 -0.000000 0.000000 0.000000 0.000000 0.000000 0.000000 -0.000000 0.000000 0.000000 -0.000000 0.000000 0.000000 -0.000000 0.000000 0.000000 -0.000000 0.000000 0.000000 0.000000 0.000000 0.000000 0.000000 0.000000 0.000000 -0.000000 0.000000 0.000000 -0.000000 0.000000 0.000000 -0.000000 0.000000 0.000000 -0.000000 0.000000 0.000000 0.000000 0.000000 0.000000 0.000000 0.000000 0.000000 0.000000 0.000000 19.119291 -0.000000 0.000000 0.000000 -0.000000 0.000000 0.000000 0.000000 0.000000 0.000000 0.000000 0.000000 19.119291 -0.000000 0.000000 0.000000 -0.000000 0.000000 0.000000 0.000000 0.000000 0.000000
46.329807 74.880461 336.269010 -0.454640 -0.267887 -18.316319 0.347428 0.397184 18.314052 -0.000000 0.000000 0.000000 -0.021113 -0.805919 0.253086 0.000000 0.000000 0.000000 -0.354436 -1.401427 1.391437 0.961063 -0.064664 -1.465211 -2.123810 2.555941 2.088805 1.175083 1.111259 -2.372335 0.000000 0.000000 0.000000 0.000000 0.000000 0.000000 -0.655329 -0.782865 -0.158719 0.653219 0.784626 0.149769 -2.110029 1.112229 -0.327712 2.116745 -1.099388 0.368506 0.000000 0.000000 0.000000 0.000000 0.000000 0.000000 -0.412540 1.952933 17.866166 0.246207 -1.713775 0.467154 -1.172782 -10.866199 -3.102104 0.000000 0.000000 0.000000 0.347428 0.397184 18.314052 -0.000000 0.000000 0.000000 1.563583 -0.158902 -1.470932 0.000000 0.000000 0.000000
46.537581 74.891214 336.607090 -0.839338 -0.490697 -17.660016 -0.063853 -0.051186 17.626519 -0.021378 -0.063144 -0.043923 0.876184 -0.887720 0.530383 0.000000 0.000000 0.000000 0.286408 -1.974922 2.610473 1.694858 -0.038033 -2.685308 -3.855458 4.626864 4.092326 2.325555 2.177422 -4.427421 0.000000 0.000000 0.000000 0.000000 0.000000 0.000000 -0.281548 -0.835570 -0.216595 1.478090 0.035364 0.503017 -4.306789 3.833758 -0.938126 5.091088 -2.287087 0.265896 0.000000 0.000000 0.000000 0.000000 0.000000 0.000000 -0.646892 3.534984 16.873707 0.426532 -3.067907 0.838257 -2.855278 -20.788375 -6.334620 0.000000 0.000000 0.000000 0.650976 0.722155 17.652319 -0.892521 0.557666 -0.325025 3.694085 -0.793930 -2.282229 0.000000 0.000000 0.000000
46.708286 74.897383 336.879281 -1.153406 -0.668012 -17.152172 -0.075769 -0.065747 17.104759 -0.014913 -0.074658 -0.058764 1.137819 -1.213050 0.715386 0.000000 0.000000 0.000000 0.354770 -2.676523 3.529182 2.219782 0.096986 -3.642007 -5.167852 6.221552 5.941491 3.440748 2.974513 -6.098347 0.000000 0.000000 0.000000 0.000000 0.000000 0.000000 -0.425338 -1.118527 -0.298680 2.048970 0.044133 0.660664 -6.150217 5.819487 -1.519043 7.229706 -3.818102 1.021652 0.000000 0.000000 0.000000 0.000000 0.000000 0.000000 -0.734951 4.735623 16.129371 0.534023 -4.063878 1.109097 -4.678233 -28.382071 -9.266053 0.000000 0.000000 0.000000 0.905244 0.978335 17.137719 -1.225623 0.785608 -0.448070 4.932228 -1.022263 -2.999672 0.000000 0.000000 0.000000
46.841923 74.898969 337.085582 -1.396332 -0.799542 -16.793909 -0.073796 -0.073659 16.735431 0.003220 -0.072761 -0.068670 1.278640 -1.459805 0.848138 0.000000 0.000000 0.000000 0.355791 -3.177184 4.185969 2.550099 0.352889 -4.322379 -6.035149 7.353731 7.582633 4.473287 3.273169 -7.337133 0.000000 0.000000 0.000000 0.000000 0.000000 0.000000 -0.565854 -1.305646 -0.359596 2.500411 0.038128 0.759949 -7.743528 7.804823 -2.179521 9.089349 -5.535586 2.138232 0.000000 0.000000 0.000000 0.000000 0.000000 0.000000 -0.701269 5.549673 15.625097 0.563653 -4.704212 1.276925 -6.095315 -32.998043 -11.366368 0.000000 0.000000 0.000000 1.106009 1.168673 16.772886 -1.485000 0.979769 -0.546312 5.764898 -1.123546 -3.443533 0.000000 0.000000 0.000000
46.938492 74.895971 337.225994 -1.567769 -0.885105 -16.585863 -0.057716 -0.075199 16.519704 0.033071 -0.057480 -0.073569 1.297146 -1.628023 0.929218 0.000000 0.000000 0.000000 0.280589 -3.472374 4.579483 2.694170 0.737784 -4.717472 -6.434646 8.037765 8.978515 5.346059 2.910033 -8.131191 0.000000 0.000000 0.000000 0.000000 0.000000 0.000000 -0.700102 -1.393984 -0.397415 2.828659 0.013176 0.803234 -9.064806 9.749000 -2.919999 10.677680 -7.390401 3.561804 0.000000 0.000000 0.000000 0.000000 0.000000 0.000000 -0.562773 5.975385 15.356602 0.512288 -4.991132 1.340406 -6.627132 -34.526573 -12.193972 0.000000 0.000000 0.000000 1.250220 1.295505 16.559617 -1.671584 1.140265 -0.620612 6.193663 -1.092709 -3.619618 0.000000 0.000000 0.000000
46.950179 74.901863 337.256233 -1.610912 -0.918058 -16.467137 -0.048958 -0.078779 16.398884 0.069246 -0.028299 -0.072305 0.949098 -1.608464 0.914126 0.000000 0.000000 0.000000 0.107524 -3.554370 4.695884 2.678932 0.768168 -4.807764 -6.351648 10.041858 12.352299 5.690774 0.345071 -10.559568 0.000000 0.000000 0.000000 0.000000 0.000000 0.000000 -0.794244 -1.317850 -0.397560 2.970951 -0.007983 0.750299 -10.438865 12.321272 -4.130994 11.564856 -11.197370 7.236117 0.000000 0.000000 0.000000 0.000000 0.000000 0.000000 -0.229815 5.811974 15.316340 0.280970 -4.715257 1.228982 -5.344243 -30.867739 -11.109795 0.000000 0.000000 0.000000 1.284967 1.336715 16.439240 -1.759391 1.266780 -0.665596 4.969747 -0.570739 -2.458552 0.000000 0.000000 0.000000
46.957529 74.896012 337.244603 -1.654194 -0.890453 -16.537201 -0.030584 -0.072901 16.468022 0.126421 0.019183 -0.068552 0.855187 -1.608334 0.886350 0.000000 0.000000 0.000000 -0.138002 -3.354844 4.475166 2.530560 1.398036 -4.538874 -5.805015 10.282564 14.075050 6.753767 -1.396007 -10.172454 0.000000 0.000000 0.000000 0.000000 0.000000 0.000000 -0.848823 -1.200419 -0.377943 3.041668 -0.044082 0.643741 -10.734416 14.559334 -5.547458 13.844144 -13.874953 9.294868 0.000000 0.000000 0.000000 0.000000 0.000000 0.000000 0.207471 5.328987 15.532342 0.012510 -4.159334 1.042392 -4.141852 -26.755231 -9.363263 0.000000 0.000000 0.000000 1.332683 1.324128 16.508945 -1.790871 1.369731 -0.693190 4.434615 -0.263788 -1.976966 0.000000 0.000000 0.000000
46.957125 74.876584 337.195433 -1.628523 -0.824561 -16.754799 0.076745 -0.029499 16.690715 0.216976 0.085207 -0.054905 0.548674 -1.597636 0.819862 0.000000 0.000000 0.000000 -0.560160 -2.962721 3.997082 2.090221 2.657787 -3.976419 -4.637558 8.625771 13.786810 6.936959 -3.165066 -8.858662 0.000000 0.000000 0.000000 0.000000 0.000000 0.000000 -1.013823 -0.981595 -0.342510 2.876251 -0.153756 0.605021 -11.839277 16.716473 -6.633614 16.079826 -16.118743 11.505571 0.000000 0.000000 0.000000 0.000000 0.000000 0.000000 0.616884 4.635129 15.938146 -0.215044 -2.243609 0.710544 -3.052639 -23.251625 -7.312501 0.000000 0.000000 0.000000 1.322017 1.258713 16.728557 -1.767583 1.428772 -0.699834 3.724407 0.654958 -1.537630 0.000000 0.000000 0.000000
46.959791 74.842575 337.118268 -1.531899 -0.728163 -17.276592 0.229879 0.048285 17.222482 0.312397 0.165887 -0.035331 -0.092130 -1.609735 0.722961 0.000000 0.000000 0.000000 -1.031779 -2.533683 3.404323 1.505022 4.660481 -3.295938 -3.121611 4.279110 10.296785 7.030878 -2.389736 -5.239328 0.000000 0.000000 0.000000 0.000000 0.000000 0.000000 -1.128210 -0.688732 -0.282815 2.503506 -0.508480 0.594702 -12.142750 16.825357 -6.682859 16.309621 -15.065097 10.696551 0.000000 0.000000 0.000000 0.000000 0.000000 0.000000 0.939910 3.760318 16.681609 -0.584569 -0.870644 0.372342 -2.747253 -22.873452 -6.456529 0.000000 0.000000 0.000000 1.246788 1.150017 17.254344 -1.718777 1.433065 -0.689880 4.393205 0.126041 -2.108070 0.000000 0.000000 0.000000
